<svg width="467" height="135" viewBox="0 0 467 135" fill="none" xmlns="http://www.w3.org/2000/svg">
<path d="M405.908 128.616C405.908 129.128 405.481 129.469 404.628 129.64C400.703 129.64 397.204 125.501 394.132 117.224C391.06 108.947 389.524 101.736 389.524 95.592C389.524 94.6533 389.993 94.056 390.932 93.8C394.431 92.6053 398.484 90.344 403.092 87.016C407.785 83.688 410.132 80.1893 410.132 76.52C410.132 75.3253 409.535 74.728 408.34 74.728C403.049 74.728 395.668 79.3787 386.196 88.68C376.809 97.896 370.153 106.173 366.228 113.512C365.887 114.28 365.204 114.664 364.18 114.664C363.241 114.664 362.132 113.811 360.852 112.104C359.657 110.397 359.06 108.648 359.06 106.856C359.06 105.064 359.359 103.528 359.956 102.248C368.575 84.84 376.681 69.8213 384.276 57.192C391.956 44.5627 398.569 34.536 404.116 27.112C409.663 19.6027 415.465 13.2453 421.524 8.04C427.583 2.74934 432.916 0.104004 437.524 0.104004C441.535 0.104004 443.54 2.49334 443.54 7.272C443.54 13.5867 441.279 20.4987 436.756 28.008C432.233 35.432 427.241 41.6613 421.78 46.696C414.015 53.9493 407.999 57.576 403.732 57.576C402.111 57.576 401.3 57.1493 401.3 56.296L402.068 55.144C410.431 49.3413 417.044 42.6427 421.908 35.048C426.857 27.4533 429.332 22.12 429.332 19.048C429.332 17.256 428.607 16.36 427.156 16.36C424.084 16.36 419.177 20.9253 412.436 30.056C405.78 39.1867 399.807 48.6587 394.516 58.472C389.311 68.2853 386.708 74.344 386.708 76.648C386.708 77.7573 387.22 78.312 388.244 78.312C389.012 78.312 389.908 77.8427 390.932 76.904C392.041 75.9653 393.577 74.7707 395.54 73.32C397.503 71.784 401.087 69.7787 406.292 67.304C411.497 64.8293 416.148 63.592 420.244 63.592C424.425 63.592 426.516 65.5547 426.516 69.48C426.516 72.7227 425.279 75.8373 422.804 78.824C420.329 81.8107 417.599 84.2 414.612 85.992C411.625 87.784 408.852 89.6187 406.292 91.496C403.732 93.288 402.409 94.7813 402.324 95.976C402.153 98.3653 402.068 100.541 402.068 102.504C402.068 104.467 402.196 106.856 402.452 109.672C402.708 112.403 403.007 114.835 403.348 116.968C404.031 120.296 404.756 123.667 405.524 127.08L405.908 128.616Z" fill="black"/>
<path d="M337.25 108.52L337.506 105.832C337.506 105.149 337.25 104.808 336.738 104.808C335.97 104.808 334.391 105.917 332.002 108.136C329.698 110.355 326.754 112.573 323.17 114.792C319.671 117.096 316.13 118.248 312.546 118.248C309.047 118.248 307.298 115.645 307.298 110.44C307.298 103.955 310.114 96.488 315.746 88.04C318.647 83.7733 321.975 79.848 325.73 76.264C329.57 72.5947 334.221 69.608 339.682 67.304C345.143 64.9147 350.861 63.72 356.834 63.72C359.991 63.72 362.679 64.5733 364.898 66.28C367.117 67.9013 368.226 69.9493 368.226 72.424C368.226 74.8133 367.501 76.008 366.05 76.008C365.282 76.008 364.258 75.5387 362.978 74.6C360.589 72.9787 356.834 72.168 351.714 72.168C344.973 72.168 338.573 75.24 332.514 81.384C326.541 87.4427 323.554 93.4587 323.554 99.432C323.554 100.2 323.767 100.925 324.194 101.608C324.706 102.291 325.389 102.632 326.242 102.632C328.802 102.632 332.087 100.883 336.098 97.384C340.109 93.8 344.034 88.68 347.874 82.024C348.13 81.256 349.069 80.5307 350.69 79.848C352.311 79.1653 354.231 78.824 356.45 78.824C359.607 79.08 361.186 79.7627 361.186 80.872C361.186 80.9573 360.845 81.512 360.162 82.536C359.565 83.4747 358.455 85.224 356.834 87.784C355.213 90.344 352.909 94.568 349.922 100.456C347.021 106.259 345.314 110.867 344.802 114.28C344.717 115.304 344.29 115.816 343.522 115.816C339.341 115.816 337.25 113.384 337.25 108.52Z" fill="black"/>
<path d="M261.008 114.664C259.045 113.725 257.424 112.061 256.144 109.672C254.949 107.283 254.352 104.339 254.352 100.84C254.352 95.3787 256.101 89.6613 259.6 83.688C263.184 77.7147 268.176 72.5947 274.576 68.328C281.061 64.0613 287.888 61.928 295.056 61.928C298.384 61.928 301.157 62.824 303.376 64.616C305.595 66.408 306.704 68.2 306.704 69.992C306.704 71.6987 306.448 73.064 305.936 74.088C305.424 75.112 305.168 75.7947 305.168 76.136C305.168 77.16 305.979 77.672 307.6 77.672C309.221 77.672 310.459 77.4587 311.312 77.032C312.165 76.6053 312.677 76.392 312.848 76.392C313.531 76.392 313.872 77.288 313.872 79.08C313.872 80.7867 313.019 82.8347 311.312 85.224C309.605 87.528 307.515 89.2347 305.04 90.344C304.699 91.0267 304.229 92.008 303.632 93.288C303.035 94.4827 301.627 96.616 299.408 99.688C297.189 102.675 294.8 105.363 292.24 107.752C289.765 110.056 286.437 112.147 282.256 114.024C278.16 115.987 274.405 116.968 270.992 116.968C267.579 116.968 264.251 116.2 261.008 114.664ZM289.552 92.648C289.552 91.9653 289.168 91.624 288.4 91.624C287.291 91.624 286.011 91.88 284.56 92.392C283.195 92.904 282.427 93.16 282.256 93.16C281.744 93.16 281.488 92.776 281.488 92.008C281.488 88.68 282.683 85.8213 285.072 83.432C286.011 82.408 287.376 81.5547 289.168 80.872C290.96 80.104 292.325 79.2507 293.264 78.312C294.288 77.288 294.8 75.5813 294.8 73.192C294.8 70.2907 293.264 68.84 290.192 68.84C284.731 68.84 279.525 72.7227 274.576 80.488C269.627 88.168 267.152 95.0373 267.152 101.096C267.152 103.144 267.835 104.893 269.2 106.344C270.651 107.795 272.357 108.52 274.32 108.52C278.757 108.52 282.384 106.685 285.2 103.016C288.101 99.2613 289.552 95.8053 289.552 92.648Z" fill="black"/>
<path d="M247.577 96.744C245.956 96.744 244.718 95.9333 243.865 94.312C243.012 92.6053 242.585 90.984 242.585 89.448C242.585 87.8267 243.097 85.992 244.121 83.944C244.121 82.8347 243.694 82.28 242.841 82.28C239.513 82.28 235.716 84.2853 231.449 88.296C227.182 92.2213 223.598 96.3173 220.697 100.584C217.796 104.765 215.15 108.989 212.761 113.256C211.31 115.816 208.324 117.096 203.801 117.096C201.497 117.096 200.345 116.584 200.345 115.56C200.345 113.256 204.526 104.68 212.889 89.832C221.337 74.8987 226.926 66.92 229.657 65.896C231.534 64.9573 233.625 64.488 235.929 64.488C238.318 64.488 239.513 65 239.513 66.024C239.513 66.9627 238.532 68.84 236.569 71.656C234.606 74.472 233.625 76.264 233.625 77.032C233.625 77.8 233.924 78.184 234.521 78.184C234.862 78.184 235.801 77.672 237.337 76.648C241.092 73.832 245.7 70.9307 251.161 67.944L252.313 66.408C254.361 63.848 257.305 62.568 261.145 62.568C265.07 62.568 267.033 63.336 267.033 64.872C266.862 65.2987 266.436 65.9813 265.753 66.92C259.012 76.136 253.337 85.7787 248.729 95.848C248.388 96.4453 248.004 96.744 247.577 96.744Z" fill="black"/>
<path d="M168.202 116.072C154.122 116.072 147.082 108.904 147.082 94.568C147.082 90.3867 148.063 85.3093 150.026 79.336C152.074 73.3627 155.061 67.176 158.986 60.776C162.911 54.2907 167.349 48.2747 172.298 42.728C177.247 37.1813 183.05 32.616 189.706 29.032C196.362 25.448 203.061 23.656 209.802 23.656C212.959 23.656 215.391 24.04 217.098 24.808C218.805 25.4907 219.701 25.832 219.786 25.832C219.957 25.832 221.023 25.4053 222.986 24.552C225.034 23.6987 227.423 23.272 230.154 23.272C232.97 23.272 234.378 24.0827 234.378 25.704C234.378 27.24 232.714 30.6533 229.386 35.944C226.143 41.2347 222.218 46.312 217.61 51.176C213.002 56.04 209.333 58.472 206.602 58.472C206.261 58.5573 205.834 58.6 205.322 58.6C203.701 58.6 202.89 58.1307 202.89 57.192C202.89 57.0213 203.487 56.0827 204.682 54.376C205.877 52.584 207.071 50.2373 208.266 47.336C209.461 44.3493 210.058 41.96 210.058 40.168C210.058 38.376 209.973 37.096 209.802 36.328C209.631 35.56 209.034 34.664 208.01 33.64C207.071 32.616 205.749 32.104 204.042 32.104C199.434 32.104 193.93 35.6027 187.53 42.6C181.215 49.5973 175.754 57.832 171.146 67.304C166.623 76.6907 164.362 84.6693 164.362 91.24C164.362 99.0907 167.946 103.016 175.114 103.016C183.647 103.016 191.925 97.512 199.946 86.504C200.287 85.8213 200.629 85.48 200.97 85.48C201.397 85.48 201.695 85.5227 201.866 85.608C202.122 85.608 202.421 85.864 202.762 86.376C203.189 86.8027 203.402 87.656 203.402 88.936C203.402 90.216 202.506 92.3493 200.714 95.336C199.007 98.3227 196.703 101.395 193.802 104.552C190.901 107.709 187.146 110.44 182.538 112.744C177.93 114.963 173.151 116.072 168.202 116.072Z" fill="black"/>
<path d="M89.1759 120.296C84.2266 120.296 80.5999 118.803 78.2959 115.816C75.9919 112.915 74.8399 109.331 74.8399 105.064C74.8399 100.712 75.7786 96.1893 77.6559 91.496C79.5333 86.7173 82.0933 82.1093 85.3359 77.672C88.6639 73.2347 92.9733 69.5227 98.2639 66.536C103.64 63.464 109.4 61.928 115.544 61.928C118.36 61.928 120.493 62.824 121.944 64.616C123.395 66.3227 124.12 68.3707 124.12 70.76C124.12 75.7093 122.371 80.3173 118.872 84.584C115.373 88.8507 111.491 92.0933 107.224 94.312C102.957 96.5307 99.1599 97.8107 95.8319 98.152C92.5893 98.408 90.4133 99.0053 89.3039 99.944C88.1946 100.883 87.6399 102.76 87.6399 105.576C87.6399 108.392 88.2799 110.525 89.5599 111.976C90.8399 113.427 92.1199 114.408 93.3999 114.92C94.6799 115.432 95.3199 115.944 95.3199 116.456C95.3199 117.651 94.6799 118.589 93.3999 119.272C92.1199 119.955 90.7119 120.296 89.1759 120.296ZM111.704 73.96C111.704 71.3147 110.509 69.992 108.12 69.992C104.707 69.992 100.909 72.3813 96.7279 77.16C92.6319 81.9387 90.5839 86.248 90.5839 90.088C90.5839 91.0267 91.3093 91.496 92.7599 91.496C96.2586 91.496 100.269 89.704 104.792 86.12C109.4 82.536 111.704 78.4827 111.704 73.96Z" fill="black"/>
<path d="M20.6399 113.896L18.8479 113.768C17.6533 113.768 16.7573 114.152 16.1599 114.92C13.2586 117.395 9.33328 118.632 4.38395 118.632C1.82395 118.632 0.543945 118.077 0.543945 116.968V116.584C0.543945 115.645 3.48795 110.099 9.37595 99.944C15.3493 89.704 21.9199 78.312 29.0879 65.768C36.3413 53.224 40.9919 44.6053 43.0399 39.912C45.1733 35.2187 46.2399 31.336 46.2399 28.264V26.6C46.2399 24.3813 50.8053 23.272 59.9359 23.272C64.5439 23.272 66.8479 24.1253 66.8479 25.832C66.8479 26.5147 66.5066 27.1973 65.8239 27.88C58.9973 38.9733 49.952 54.8027 38.688 75.368L36.8959 78.568C35.7013 80.7013 34.8479 82.2373 34.3359 83.176C33.8239 84.0293 33.0133 85.5653 31.9039 87.784C30.8799 89.9173 30.1119 91.6667 29.5999 93.032C28.1493 96.872 27.4239 99.8587 27.4239 101.992C27.4239 105.149 30.2399 106.728 35.8719 106.728H36.7679C40.2666 106.728 44.1066 106.003 48.2879 104.552C56.4799 101.651 63.136 96.104 68.256 87.912C68.5973 87.144 69.536 86.76 71.072 86.76C72.6933 86.76 73.504 87.4427 73.504 88.808C73.504 90.856 72.1386 94.5253 69.408 99.816C66.6773 105.107 64.2026 109.032 61.9839 111.592C60.8746 113.128 58.7413 113.896 55.584 113.896C52.4266 114.067 45.5999 114.152 35.1039 114.152L20.6399 113.896Z" fill="black"/>
<path fill-rule="evenodd" clip-rule="evenodd" d="M466.088 99.8462C467.278 101 467.307 102.899 466.154 104.088C457.779 112.726 444.425 124.246 431.631 130.476C425.265 133.576 418.649 135.561 412.688 134.859C406.424 134.121 401.315 130.465 398.246 123.367L403.754 120.986C406.043 126.282 409.421 128.432 413.39 128.9C417.662 129.403 423.026 127.993 429.004 125.081C440.897 119.29 453.686 108.328 461.846 99.9117C463 98.7222 464.899 98.6928 466.088 99.8462Z" fill="black"/>
</svg>
