<svg width="46" height="14" viewBox="0 0 46 14" fill="none" xmlns="http://www.w3.org/2000/svg">
<path d="M39.7105 12.6811C39.7132 12.7304 39.6738 12.7655 39.5925 12.7863C39.2144 12.8064 38.8561 12.4261 38.5176 11.6454C38.1792 10.8646 37.9942 10.1786 37.9627 9.58732C37.9578 9.49699 38 9.43709 38.0891 9.40763C38.42 9.27469 38.7989 9.03624 39.2257 8.69229C39.6608 8.34791 39.8689 7.99916 39.85 7.64604C39.8439 7.53107 39.7833 7.47666 39.6682 7.4828C39.1585 7.50999 38.4713 7.99548 37.6066 8.93926C36.7496 9.87439 36.1509 10.7052 35.8104 11.4316C35.7815 11.5072 35.7177 11.5477 35.6191 11.5529C35.5286 11.5578 35.4174 11.4813 35.2853 11.3237C35.1615 11.1656 35.0949 11.0003 35.0857 10.8279C35.0765 10.6554 35.0974 10.5061 35.1484 10.3798C35.8893 8.66028 36.5932 7.17331 37.2599 5.91892C37.935 4.66408 38.5206 3.66519 39.0168 2.92224C39.5126 2.17109 40.039 1.52948 40.5959 0.997412C41.1524 0.457134 41.6526 0.175155 42.0965 0.151473C42.4829 0.130862 42.6883 0.35049 42.7129 0.810359C42.7453 1.41804 42.5629 2.09483 42.1658 2.84073C41.7682 3.57841 41.3193 4.20353 40.819 4.71611C40.1082 5.45403 39.5472 5.83395 39.1362 5.85588C38.98 5.86421 38.8997 5.82732 38.8954 5.7452L38.9634 5.63039C39.7393 5.029 40.342 4.35038 40.7716 3.59452C41.2094 2.83822 41.4204 2.31226 41.4046 2.01663C41.3954 1.84417 41.3209 1.76168 41.1812 1.76913C40.8852 1.78492 40.436 2.24947 39.8334 3.1628C39.2391 4.07568 38.7123 5.01791 38.253 5.98947C37.8019 6.96059 37.5823 7.55702 37.5941 7.77874C37.5998 7.8855 37.652 7.93624 37.7506 7.93098C37.8246 7.92703 37.9085 7.87726 38.0024 7.78167C38.1044 7.68564 38.2462 7.56278 38.4279 7.41309C38.6091 7.25518 38.944 7.04378 39.4328 6.77889C39.9215 6.51399 40.3632 6.37101 40.7578 6.34996C41.1606 6.32848 41.3721 6.50661 41.3922 6.88435C41.4089 7.19641 41.3057 7.5025 41.0826 7.80264C40.8595 8.10278 40.6087 8.34674 40.3302 8.53454C40.0517 8.72234 39.794 8.91315 39.557 9.10697C39.3196 9.29258 39.1998 9.44309 39.1977 9.55849C39.1935 9.7893 39.1965 9.99915 39.2066 10.188C39.2166 10.3769 39.2412 10.6062 39.2804 10.8759C39.319 11.1373 39.3603 11.3698 39.4041 11.5734C39.487 11.8901 39.5742 12.2108 39.6657 12.5353L39.7105 12.6811Z" fill="black"/>
<path d="M32.9932 11.1001L33.0041 10.8401C33.0006 10.7744 32.9741 10.7429 32.9248 10.7455C32.8508 10.7494 32.7045 10.8643 32.4857 11.0901C32.2751 11.3154 32.0029 11.5441 31.669 11.776C31.3438 12.0157 31.0085 12.1448 30.6633 12.1632C30.3262 12.1812 30.1444 11.9397 30.1176 11.4388C30.0843 10.8147 30.3173 10.0817 30.8165 9.23973C31.0741 8.81422 31.3745 8.41937 31.7178 8.05517C32.0689 7.68232 32.5016 7.371 33.0159 7.12121C33.5297 6.86321 34.0744 6.71886 34.6498 6.68816C34.954 6.67193 35.2173 6.74024 35.4398 6.89308C35.6619 7.0377 35.7793 7.22909 35.792 7.46723C35.8042 7.69717 35.7405 7.81586 35.6007 7.82332C35.5268 7.82726 35.4257 7.78736 35.2976 7.70361C35.0591 7.55986 34.6932 7.50114 34.2 7.52746C33.5505 7.5621 32.9498 7.89062 32.3977 8.51302C31.8533 9.12677 31.5965 9.72106 31.6271 10.2959C31.6311 10.3698 31.6554 10.4385 31.7 10.502C31.7528 10.5651 31.8203 10.5944 31.9025 10.59C32.1491 10.5769 32.4566 10.3916 32.8251 10.0343C33.193 9.66883 33.5449 9.15594 33.8806 8.49567C33.9014 8.42045 33.9881 8.34582 34.1408 8.27179C34.2934 8.19777 34.4766 8.15505 34.6904 8.14365C34.9959 8.15206 35.1514 8.20964 35.1571 8.3164C35.1576 8.32461 35.1275 8.37974 35.067 8.48179C35.0143 8.57519 34.9164 8.74924 34.7734 9.00393C34.6303 9.25862 34.4301 9.67695 34.1726 10.2589C33.9229 10.8322 33.7821 11.2845 33.7503 11.6156C33.7473 11.7146 33.7089 11.766 33.6349 11.77C33.2321 11.7915 33.0182 11.5682 32.9932 11.1001Z" fill="black"/>
<path d="M25.68 12.0832C25.4861 12.0029 25.3213 11.8511 25.1858 11.6278C25.0584 11.404 24.9857 11.1237 24.9678 10.787C24.9397 10.2615 25.0789 9.70228 25.3853 9.10946C25.6999 8.51621 26.1545 7.99784 26.7492 7.55435C27.352 7.11042 27.9987 6.87004 28.6892 6.8332C29.0098 6.8161 29.2816 6.88807 29.5046 7.04912C29.7275 7.21017 29.8436 7.37692 29.8528 7.54937C29.8615 7.71361 29.8439 7.84631 29.7998 7.94749C29.7557 8.04866 29.7346 8.11568 29.7363 8.14852C29.7416 8.24707 29.8223 8.29217 29.9785 8.28384C30.1347 8.27551 30.2528 8.24862 30.3328 8.20317C30.4128 8.15773 30.4611 8.13457 30.4775 8.13369C30.5433 8.13018 30.5807 8.21465 30.5899 8.3871C30.5987 8.55134 30.527 8.75281 30.3749 8.99152C30.2223 9.22201 30.0296 9.397 29.7969 9.51647C29.7676 9.58392 29.7274 9.68077 29.6764 9.80702C29.625 9.92505 29.5003 10.1376 29.3023 10.4446C29.1039 10.7434 28.8876 11.0144 28.6532 11.2575C28.4266 11.4919 28.1168 11.7102 27.7236 11.9124C27.3391 12.1223 26.9824 12.236 26.6536 12.2536C26.3248 12.2711 26.0002 12.2143 25.68 12.0832ZM28.3167 9.81779C28.3132 9.75209 28.2745 9.72122 28.2005 9.72516C28.0936 9.73087 27.9716 9.76208 27.8345 9.81881C27.7056 9.8751 27.6329 9.90368 27.6165 9.90456C27.5672 9.90719 27.5405 9.87155 27.5366 9.79764C27.5195 9.47737 27.6199 9.19614 27.8378 8.95392C27.923 8.85055 28.0502 8.76142 28.2193 8.68651C28.388 8.6034 28.5151 8.51426 28.6007 8.4191C28.6941 8.3153 28.7347 8.14843 28.7224 7.91849C28.7075 7.63929 28.5521 7.50758 28.2562 7.52337C27.73 7.55143 27.2485 7.95183 26.8116 8.72455C26.3742 9.48906 26.1711 10.1628 26.2022 10.7459C26.2127 10.943 26.2875 11.1078 26.4264 11.2404C26.5736 11.3725 26.7418 11.4336 26.9308 11.4235C27.3583 11.4007 27.6983 11.2055 27.9507 10.8379C28.2109 10.4617 28.3329 10.1216 28.3167 9.81779Z" fill="black"/>
<path d="M24.2941 10.4277C24.1379 10.436 24.0145 10.3644 23.924 10.2127C23.833 10.0529 23.7836 9.89903 23.7757 9.75121C23.7674 9.59519 23.8073 9.416 23.8954 9.21365C23.8897 9.1069 23.8458 9.05571 23.7636 9.0601C23.443 9.0772 23.0875 9.28969 22.697 9.69758C22.3061 10.0973 21.9819 10.5099 21.7243 10.9354C21.4663 11.3527 21.2331 11.7727 21.0249 12.1956C20.8982 12.4494 20.6171 12.588 20.1814 12.6112C19.9594 12.623 19.8458 12.5797 19.8406 12.4812C19.8288 12.2594 20.1875 11.4126 20.9169 9.94078C21.6541 8.46028 22.1516 7.66374 22.4094 7.55116C22.5854 7.45118 22.7844 7.39527 23.0064 7.38343C23.2366 7.37115 23.3543 7.41428 23.3595 7.51282C23.3643 7.60316 23.2795 7.78886 23.1048 8.06994C22.9302 8.35102 22.8449 8.52852 22.8488 8.60242C22.8528 8.67633 22.8835 8.71175 22.9411 8.70868C22.9739 8.70693 23.0617 8.65283 23.2044 8.54639C23.5517 8.2561 23.9807 7.95322 24.4915 7.63773L24.5946 7.484C24.7787 7.22711 25.0558 7.0888 25.4257 7.06907C25.8039 7.0489 25.9969 7.11272 26.0048 7.26053C25.9905 7.30247 25.9529 7.37036 25.892 7.4642C25.2898 8.38573 24.7927 9.34284 24.4005 10.3355C24.3707 10.3948 24.3352 10.4255 24.2941 10.4277Z" fill="black"/>
<path d="M16.7467 12.6956C15.3903 12.768 14.6753 12.1143 14.6017 10.7347C14.5803 10.3324 14.6487 9.83871 14.8071 9.25378C14.9738 8.66842 15.2297 8.05771 15.575 7.42164C15.9199 6.77736 16.3164 6.17561 16.7648 5.6164C17.2131 5.05719 17.7486 4.58803 18.3715 4.20892C18.9943 3.82981 19.6304 3.62293 20.2798 3.58829C20.584 3.57206 20.8202 3.59652 20.9886 3.66165C21.1565 3.71858 21.2446 3.74682 21.2528 3.74638C21.2692 3.7455 21.3698 3.69896 21.5545 3.60676C21.7474 3.51411 21.9754 3.46077 22.2384 3.44674C22.5097 3.43227 22.6495 3.50304 22.6579 3.65907C22.6657 3.80689 22.523 4.14392 22.2295 4.67016C21.9443 5.19596 21.5922 5.70475 21.1733 6.19651C20.7543 6.68827 20.4133 6.94117 20.1503 6.9552C20.1178 6.96517 20.0769 6.97147 20.0276 6.9741C19.8714 6.98243 19.7909 6.94143 19.7861 6.8511C19.7852 6.83468 19.838 6.74128 19.9443 6.5709C20.0502 6.39231 20.1532 6.16034 20.2534 5.87499C20.3532 5.58144 20.3984 5.34843 20.3892 5.17598C20.38 5.00353 20.3652 4.88079 20.3449 4.80776C20.3245 4.73473 20.2623 4.65157 20.1584 4.55829C20.0627 4.46457 19.9327 4.4221 19.7683 4.43087C19.3244 4.45455 18.8121 4.81953 18.2315 5.5258C17.6591 6.23163 17.1752 7.05215 16.78 7.98736C16.3925 8.91391 16.2156 9.69335 16.2493 10.3257C16.2896 11.0812 16.655 11.4405 17.3456 11.4037C18.1676 11.3598 18.9368 10.7876 19.653 9.68703C19.6824 9.61958 19.7135 9.58498 19.7464 9.58323C19.7875 9.58104 19.8165 9.58361 19.8333 9.59094C19.858 9.58963 19.8881 9.61273 19.9236 9.66024C19.9669 9.69911 19.9918 9.78013 19.9984 9.90331C20.005 10.0265 19.9296 10.2364 19.7723 10.533C19.6232 10.8292 19.417 11.1367 19.1538 11.4554C18.8905 11.7742 18.5428 12.0563 18.1107 12.3017C17.6782 12.5389 17.2235 12.6702 16.7467 12.6956Z" fill="black"/>
<path d="M9.15542 13.5082C8.67863 13.5337 8.32158 13.4086 8.08429 13.133C7.84744 12.8657 7.71807 12.5267 7.69616 12.1161C7.67382 11.6973 7.74103 11.2572 7.89778 10.7959C8.05411 10.3264 8.27707 9.86979 8.56667 9.42611C8.86449 8.98198 9.26057 8.60262 9.75492 8.28801C10.257 7.96475 10.8041 7.78733 11.3959 7.75576C11.6672 7.74128 11.8773 7.81655 12.0263 7.98154C12.1748 8.13833 12.2552 8.33168 12.2674 8.56162C12.2929 9.03791 12.148 9.49035 11.8328 9.91892C11.5177 10.3475 11.1603 10.6795 10.7607 10.9149C10.361 11.1504 10.0018 11.2931 9.68294 11.343C9.37188 11.3843 9.16532 11.453 9.06327 11.549C8.96122 11.6451 8.91742 11.8286 8.93188 12.0996C8.94634 12.3706 9.01894 12.5726 9.1497 12.7056C9.28046 12.8386 9.4088 12.9265 9.53474 12.9692C9.66068 13.0119 9.72496 13.0579 9.72759 13.1071C9.73372 13.2221 9.67689 13.3157 9.55708 13.388C9.43728 13.4603 9.30339 13.5003 9.15542 13.5082ZM11.0878 8.93338C11.0742 8.6788 10.9523 8.55766 10.7221 8.56994C10.3933 8.58748 10.0398 8.83693 9.66149 9.31829C9.29143 9.79921 9.11626 10.2244 9.13598 10.594C9.1408 10.6843 9.21308 10.7257 9.35283 10.7183C9.68988 10.7003 10.067 10.5072 10.4843 10.1391C10.9098 9.77052 11.111 9.36861 11.0878 8.93338Z" fill="black"/>
<path d="M2.52014 13.2446L2.34685 13.2415C2.23176 13.2476 2.14742 13.2892 2.09381 13.3661C1.82702 13.6192 1.45522 13.7584 0.978429 13.7839C0.731811 13.797 0.605655 13.7502 0.599959 13.6435L0.597988 13.6065C0.593169 13.5162 0.848304 12.9673 1.36339 11.9598C1.88626 10.9437 2.46077 9.81361 3.0869 8.56961C3.72125 7.32518 4.12503 6.47187 4.29822 6.00969C4.47965 5.54707 4.56247 5.16794 4.5467 4.87231L4.53816 4.71218C4.52677 4.49867 4.96087 4.36845 5.84048 4.32153C6.28439 4.29785 6.51073 4.36813 6.51949 4.53237C6.52299 4.59806 6.49361 4.66551 6.43135 4.73471C5.83066 5.83735 5.04054 7.40715 4.061 9.44412L3.9048 9.76128C3.80066 9.97271 3.72634 10.1249 3.68183 10.2179C3.63689 10.3026 3.56668 10.4546 3.4712 10.6738C3.38351 10.8844 3.3185 11.0567 3.27619 11.1907C3.15615 11.5677 3.10161 11.8588 3.11256 12.0641C3.12877 12.368 3.40816 12.5054 3.95072 12.4765L4.03703 12.4719C4.37408 12.4539 4.74028 12.3644 5.13564 12.2033C5.90992 11.882 6.52266 11.314 6.97384 10.4993C7.00278 10.4237 7.09123 10.3819 7.2392 10.374C7.39539 10.3657 7.47699 10.4272 7.484 10.5586C7.49452 10.7557 7.38182 11.1158 7.14593 11.639C6.91003 12.1621 6.69178 12.5526 6.49119 12.8104C6.39221 12.9639 6.19064 13.0488 5.88647 13.065C5.58319 13.0976 4.92598 13.1409 3.91484 13.1949L2.52014 13.2446Z" fill="black"/>
<path fill-rule="evenodd" clip-rule="evenodd" d="M45.3603 9.60324C45.4808 9.70812 45.4934 9.89074 45.3884 10.0111C44.626 10.8854 43.3986 12.0626 42.1981 12.7279C41.6008 13.0589 40.9736 13.284 40.3957 13.247C39.7885 13.2082 39.2775 12.8827 38.9455 12.2153L39.4639 11.9579C39.7116 12.4558 40.048 12.6454 40.4328 12.67C40.8469 12.6965 41.3564 12.5332 41.9174 12.2223C43.0334 11.6038 44.2091 10.4832 44.952 9.63134C45.057 9.51094 45.2398 9.49836 45.3603 9.60324Z" fill="black"/>
</svg>
